# xmcd
#
# Track frame offsets:
# 150
# 11261
# 15840
# 26474
# 32291
# 36902
# 46489
# 53096
# 63247
# 70364
# 76034
# 90799
# 98630
# 111906
# 121775
# 134703
# 146907
# 164472
# 174442
# 183835
# 200207
# 216632
# 236828
# 252892
# 275182
# 302703
# 312291
# 324268
# 341816
#
# Disc length: 4712 seconds
#
#
# Revision: 2
# Processed by: cddbd v1.5.2PL0 Copyright (c) Steve Scherf et al.
# Submitted via: FreeRIP 2.951 
#
DISCID=9412661d
DTITLE=Katia and Marielle Labeque - Bizet, Faure, Ravel, Poulenc and Milhaud - Piano Fantasy. Music for two Pianos [CD 3)
DYEAR=2003
DGENRE=Piano Duet
TTITLE0=Jeux d'enfants -I- L'escarpolette
TTITLE1=Jeux d'enfants -II- La Toupie
TTITLE2=Jeux d'enfants -III- La Poupée
TTITLE3=Jeux d'enfants -IV- Les Chevaux de Bois
TTITLE4=Jeux d'enfants -V- Le Volant
TTITLE5=Jeux d'enfants -VI- Trompette et Tambour
TTITLE6=Jeux d'enfants -VII-  Les Bulles de Savon
TTITLE7=Jeux d'enfants -VIII- Les Quatres Coins
TTITLE8=Jeux d'enfants -IX- Colin-Maillard
TTITLE9=Jeux d'enfants -X- Saute-Mouton
TTITLE10=Jeux d'enfants -XI- Petit Marie - Petit Femme
TTITLE11=Jeux d'enfants -XII- Le Bal
TTITLE12=Dolly Suite -I- Berceuse
TTITLE13=Dolly Suite -II- Mi-a-ou
TTITLE14=Dolly Suite -III- Le Jardin de Dolly
TTITLE15=Dolly Suite -IV- Kitty-Valse
TTITLE16=Dolly Suite -V- Tendresse
TTITLE17=Dolly Suite -VI- Le Pas Espagnol
TTITLE18=Ma Mère I'Oye -I- Pavane de la Belle au bois dormant
TTITLE19=Ma Mère I'Oye -II- Petit Poucet
TTITLE20=Ma Mère I'Oye -III- Laideronnette, impératrice des pagodes
TTITLE21=Ma Mère I'Oye -IV-  Les Entretiens de la Belle et la Bête
TTITLE22=Ma Mère I'Oye -V- Le jardin féerique
TTITLE23=Capriccio d'après Le Bal masqué
TTITLE24=Elégie (en accords alternés) pour deux pianos
TTITLE25=L'Embarquement Pour Cythère
TTITLE26=Scaramouche -I- Vif
TTITLE27=Scaramouche -II- Moderé
TTITLE28=Scaramouche -III- Braziliera (mouvement de samba)
EXTD=
EXTT0=
EXTT1=
EXTT2=
EXTT3=
EXTT4=
EXTT5=
EXTT6=
EXTT7=
EXTT8=
EXTT9=
EXTT10=
EXTT11=
EXTT12=
EXTT13=
EXTT14=
EXTT15=
EXTT16=
EXTT17=
EXTT18=
EXTT19=
EXTT20=
EXTT21=
EXTT22=
EXTT23=
EXTT24=
EXTT25=
EXTT26=
EXTT27=
EXTT28=
PLAYORDER=
